<svg xmlns="http://www.w3.org/2000/svg" xmlns:xlink="http://www.w3.org/1999/xlink" width="40px" zoomAndPan="magnify" viewBox="0 0 375 374.999991" height="40px" preserveAspectRatio="xMidYMid meet" version="1.0"><path fill="#121313" d="M 11.71875 117.1875 L 363.28125 117.1875 C 369.75 117.1875 375 111.9375 375 105.46875 C 375 99 369.75 93.75 363.28125 93.75 L 11.71875 93.75 C 5.25 93.75 0 99 0 105.46875 C 0 111.9375 5.25 117.1875 11.71875 117.1875 Z M 11.71875 117.1875 " fill-opacity="1" fill-rule="nonzero"/><path fill="#121313" d="M 363.28125 175.78125 L 11.71875 175.78125 C 5.25 175.78125 0 181.03125 0 187.5 C 0 193.96875 5.25 199.21875 11.71875 199.21875 L 363.28125 199.21875 C 369.75 199.21875 375 193.96875 375 187.5 C 375 181.03125 369.75 175.78125 363.28125 175.78125 Z M 363.28125 175.78125 " fill-opacity="1" fill-rule="nonzero"/><path fill="#121313" d="M 363.28125 257.8125 L 128.90625 257.8125 C 122.4375 257.8125 117.1875 263.0625 117.1875 269.53125 C 117.1875 276 122.4375 281.25 128.90625 281.25 L 363.28125 281.25 C 369.75 281.25 375 276 375 269.53125 C 375 263.0625 369.75 257.8125 363.28125 257.8125 Z M 363.28125 257.8125 " fill-opacity="1" fill-rule="nonzero"/></svg>
